<?xml version="1.0" encoding="utf-8"?>
<!-- Generator: Adobe Illustrator 19.0.0, SVG Export Plug-In . SVG Version: 6.00 Build 0)  -->
<svg version="1.1" xmlns="http://www.w3.org/2000/svg" xmlns:xlink="http://www.w3.org/1999/xlink" x="0px" y="0px"
	 viewBox="0 0 260 130.5" style="enable-background:new 0 0 260 130.5;" xml:space="preserve">
<style type="text/css">
	.st0{fill:#0F49BC;}
	.st1{fill:#2A6AC6;}
	.st2{fill:#63503B;}
	.st3{fill:#EDB88C;}
	.st4{fill:none;stroke:#000000;stroke-miterlimit:10;}
	.st5{fill:#CCC6C2;}
	.st6{fill:#494441;}
	.st7{fill:#C6BD8D;}
	.st8{fill:#D3CA97;}
	.st9{fill:#75644E;}
	.st10{fill:#D6BA32;}
	.st11{fill:#FEDA3E;}
	.st12{fill:#FFFFFF;}
</style>
<g id="Sea">
	<g id="XMLID_57_">
		<path id="XMLID_59_" class="st0" d="M137.9,108.7c0,0,0.1-0.2,0.3-0.7c0.2-0.4,0.6-1,1.1-1.8c0.3-0.4,0.6-0.8,0.9-1.2
			c0.4-0.4,0.8-0.8,1.2-1.3c0.5-0.4,1-0.9,1.5-1.3c0.6-0.4,1.2-0.9,1.9-1.3c1.4-0.8,3-1.6,4.8-2.2c0.9-0.3,1.9-0.6,2.8-0.7
			c0.5-0.1,1-0.2,1.5-0.2c0.5-0.1,1-0.1,1.6-0.1c0.5,0,1.1,0,1.6,0c0.5,0,1.1,0.1,1.6,0.1c0.5,0.1,1.1,0.1,1.6,0.2
			c0.5,0.1,1.1,0.2,1.6,0.4c1,0.3,2.2,0.5,3.1,0.9c0.9,0.4,1.9,0.7,2.8,1.1c0.9,0.4,1.8,0.8,2.7,1.2c0.8,0.3,1.6,0.6,2.3,0.9
			c0.4,0.2,0.8,0.3,1.2,0.4c0.4,0.1,0.8,0.3,1.2,0.4c0.8,0.3,1.6,0.4,2.4,0.7c1.6,0.4,3.2,0.8,4.7,1c1.5,0.3,3,0.5,4.4,0.6
			c2.8,0.3,5.1,0.3,6.9,0.2c0.8,0,1.5,0,2-0.1c0.5,0,0.7-0.1,0.7-0.1s-0.7,0.7-2.3,1.7c-1.5,0.9-3.9,2.1-6.9,2.8
			c-1.5,0.4-3.2,0.7-5,0.8c-1.8,0.1-3.7,0.2-5.7,0c-2-0.2-4-0.5-6-1.1c-1-0.3-2.1-0.6-3.1-1c-0.9-0.4-1.8-0.7-2.7-1.1
			c-0.8-0.4-1.7-0.7-2.5-1.1c-0.8-0.4-1.6-0.6-2.3-0.8c-0.4-0.1-0.8-0.3-1.2-0.4c-0.4-0.1-0.8-0.2-1.2-0.3c-0.4-0.1-0.8-0.2-1.2-0.3
			c-0.4,0-0.8-0.1-1.2-0.2c-0.4,0-0.8-0.1-1.1-0.2c-0.4,0-0.8,0-1.1,0c-0.8-0.1-1.5,0-2.2,0c-1.5,0.1-2.8,0.3-4.2,0.6
			c-0.7,0.1-1.3,0.3-1.9,0.5c-0.6,0.2-1.2,0.4-1.7,0.5c-0.5,0.2-1,0.4-1.5,0.6c-0.5,0.2-0.9,0.4-1.3,0.5c-0.8,0.4-1.4,0.6-1.8,0.9
			C138.2,108.6,137.9,108.7,137.9,108.7z"/>
	</g>
	<g id="XMLID_54_">
		<path id="XMLID_56_" class="st1" d="M170,124.6c0,0-0.8-0.7-2.2-1.5c-1.4-0.9-3.6-1.9-6.1-2.5c-1.3-0.3-2.7-0.5-4.1-0.6
			c-1.5-0.1-3,0-4.6,0.2c-1.6,0.2-3.2,0.5-4.9,1c-1.7,0.4-3.3,1-5,1.6c-0.8,0.3-1.7,0.6-2.5,1l-1.3,0.5l-1.3,0.5
			c-2,0.8-4,1.3-5.9,1.7c-2,0.4-3.9,0.6-5.8,0.5c-1.9,0-3.7-0.3-5.3-0.7c-1.6-0.4-3-1.1-4.1-1.8c-1.1-0.7-2-1.5-2.6-2.2
			c-1.3-1.4-1.6-2.4-1.6-2.4s0.2,0.1,0.6,0.3c0.4,0.2,1,0.5,1.8,0.7c1.6,0.5,3.8,0.9,6.4,0.7c1.3-0.1,2.7-0.3,4.1-0.7
			c1.5-0.3,3-0.8,4.5-1.4c1.6-0.6,3.1-1.3,4.7-2l1.3-0.6l0.6-0.3l0.7-0.3c0.9-0.4,1.9-0.8,2.9-1.2c2-0.7,4-1.3,6.1-1.7
			c2.1-0.4,4.2-0.5,6.3-0.5c2.1,0.1,4.1,0.4,5.9,1c1.8,0.6,3.5,1.3,4.9,2.2c2.8,1.8,4.5,4,5.4,5.6c0.5,0.8,0.7,1.5,0.9,1.9
			C170,124.3,170,124.6,170,124.6z"/>
	</g>
	<g id="XMLID_51_">
		<path id="XMLID_53_" class="st1" d="M3.8,97.7c0,0,0.2,0.1,0.5,0.3c0.4,0.2,0.9,0.5,1.5,0.8c1.3,0.6,3,1.5,5,2c1,0.3,2,0.4,3,0.5
			c0.5,0.1,1,0,1.5,0c0.3,0,0.5,0,0.8-0.1l0.1,0c0.1,0-0.1,0-0.1,0l0,0l0,0l0.1,0l0.3,0l0.6,0c1-0.1,2.4-0.4,3.7-0.7
			c1.3-0.4,2.7-0.8,4.2-1.2c1.5-0.4,3.1-0.9,4.8-1.2c1.7-0.3,3.5-0.5,5.3-0.5c1.8,0.1,3.5,0.4,5,1c1.5,0.6,2.8,1.3,3.9,2
			c1.1,0.8,2,1.6,2.7,2.3c0.7,0.8,1.3,1.5,1.7,2.1c0.4,0.6,0.7,1.1,0.9,1.4c0.2,0.3,0.3,0.5,0.3,0.5s-0.2-0.1-0.6-0.2
			c-0.4-0.1-0.9-0.4-1.6-0.6c-0.3-0.1-0.7-0.3-1.1-0.4c-0.4-0.1-0.8-0.3-1.3-0.4c-0.4-0.1-0.9-0.3-1.4-0.4c-0.5-0.1-1-0.3-1.5-0.4
			c-1.1-0.2-2.2-0.4-3.3-0.4c-1.1,0-2.3,0-3.5,0.3c-1.2,0.2-2.4,0.6-3.7,1c-1.4,0.5-2.8,1-4.2,1.5c-1.5,0.5-3.1,1.1-4.8,1.4
			c-1.7,0.4-3.4,0.6-5.3,0.6l-0.6,0l-0.3,0l-0.2,0l-0.2,0c-0.5,0-0.9-0.1-1.4-0.2c-0.9-0.2-1.8-0.4-2.6-0.7c-1.6-0.6-3-1.5-4-2.4
			c-2.1-1.9-3.2-3.9-3.7-5.4c-0.3-0.7-0.4-1.3-0.5-1.7C3.8,97.9,3.8,97.7,3.8,97.7z"/>
	</g>
	<g id="XMLID_48_">
		<path id="XMLID_50_" class="st0" d="M40.7,123c0,0,0.1-0.3,0.3-0.7c0.2-0.4,0.6-1.1,1.2-1.9c0.2-0.2,0.3-0.4,0.5-0.6
			c0.2-0.2,0.4-0.4,0.6-0.6c0.4-0.4,0.9-0.8,1.5-1.3c1.1-0.9,2.5-1.6,4.1-2.3c0.8-0.4,1.6-0.6,2.5-0.9c0.9-0.3,1.8-0.4,2.8-0.6
			c1-0.2,2-0.2,3-0.3c1-0.1,2.1,0,3.1,0c1.1,0,2.1,0.2,3.2,0.3c0.5,0.1,1.1,0.1,1.6,0.2c0.5,0.1,1.1,0.2,1.6,0.3
			c1.1,0.3,2.1,0.5,3.2,0.8c1,0.3,2.1,0.7,3.1,1c1.9,0.7,3.8,1.4,5.7,2.1c0.9,0.3,1.7,0.6,2.6,0.9c0.9,0.3,1.8,0.5,2.6,0.7
			c0.9,0.3,1.7,0.4,2.5,0.6c0.8,0.2,1.7,0.3,2.5,0.5c0.8,0.2,1.6,0.2,2.3,0.3c0.8,0.1,1.5,0.1,2.2,0.2c1.4,0.1,2.7,0,3.9-0.1
			c0.6-0.1,1.1-0.2,1.6-0.3c0.5-0.1,1-0.2,1.4-0.4c0.8-0.3,1.5-0.5,2-0.7c0.4-0.2,0.7-0.4,0.7-0.4s-0.1,0.3-0.4,0.7
			c-0.3,0.4-0.7,1.1-1.4,1.8c-0.3,0.4-0.8,0.7-1.2,1.1c-0.5,0.4-1,0.7-1.6,1.1c-1.2,0.7-2.6,1.4-4.3,1.8c-0.8,0.2-1.7,0.5-2.6,0.6
			c-0.9,0.2-1.9,0.3-2.8,0.4c-1.9,0.2-4,0.1-6.1-0.1c-1-0.1-2.1-0.3-3.1-0.5c-1.1-0.2-2.1-0.5-3.2-0.8c-2.1-0.6-3.9-1.2-6-1.9
			c-0.9-0.3-1.8-0.7-2.7-1c-0.9-0.3-1.8-0.6-2.7-0.8c-0.9-0.3-1.8-0.5-2.7-0.7c-0.9-0.2-1.8-0.5-2.6-0.6c-0.9-0.1-1.7-0.4-2.5-0.4
			c-0.8-0.1-1.7-0.2-2.5-0.3c-0.8,0-1.6-0.1-2.3-0.1c-0.7,0-1.5,0-2.2,0.1c-1.4,0.1-2.7,0.3-3.8,0.6c-0.6,0.1-1.1,0.3-1.6,0.5
			c-0.5,0.2-0.9,0.3-1.4,0.5C41.6,122.3,40.7,123,40.7,123z"/>
	</g>
	<g id="XMLID_45_">
		<path id="XMLID_47_" class="st0" d="M246.1,100.8c0,0-0.3-1-0.6-2.6c-0.1-0.8-0.3-1.8-0.3-2.8c0-1,0-2.1,0.1-3.2
			c0.1-0.6,0.1-1.1,0.2-1.7c0.1-0.5,0.2-1.1,0.4-1.6c0.2-0.5,0.4-1,0.7-1.4c0.3-0.4,0.5-0.8,0.8-1.1c0.3-0.3,0.6-0.6,0.8-0.9
			c0.3-0.2,0.5-0.4,0.7-0.5c0.4-0.3,0.7-0.4,0.7-0.4l0.1,0.1c0,0-0.1,0.3-0.3,0.7c-0.1,0.2-0.2,0.5-0.3,0.8c-0.1,0.3-0.2,0.6-0.4,1
			c-0.1,0.2-0.2,0.4-0.2,0.6c-0.1,0.2-0.1,0.4-0.2,0.6c-0.2,0.4-0.3,0.8-0.4,1.3c-0.2,0.4-0.3,0.9-0.5,1.4c-0.2,0.5-0.3,1-0.5,1.5
			c-0.2,1-0.4,2-0.5,3c-0.1,0.5-0.1,1-0.1,1.4c0,0.5,0,0.9-0.1,1.3c0,1.6,0.1,2.7,0.1,2.7L246.1,100.8z"/>
	</g>
	<g id="XMLID_42_">
		<path id="XMLID_44_" class="st1" d="M249.3,101.8c0,0,0-0.2-0.1-0.5c-0.1-0.3-0.1-0.9-0.1-1.5c-0.1-1.2,0.1-2.9,0.6-4.4
			c0.2-0.8,0.4-1.6,0.8-2.3c0.4-0.7,0.8-1.2,1.2-1.7c0.4-0.4,0.8-0.8,1.2-1c0.2-0.1,0.3-0.2,0.4-0.2c0,0,0,0,0,0l0,0
			c0,0,0,0.1,0.1,0.1c0.1,0,0.1,0,0.1,0l0,0c0,0,0,0,0,0l-0.1-0.2c0,0,0,0,0,0l0,0c0,0,0,0,0.1,0c0.1,0,0.1,0.2,0.1,0.2l0,0
			c0,0,0,0.1,0,0.1c0,0.1,0,0.3-0.1,0.4c-0.1,0.4-0.2,0.9-0.4,1.4c-0.2,0.6-0.4,1.2-0.7,1.8c-0.3,0.6-0.8,1.2-1.1,1.9
			c-0.7,1.3-1.2,2.8-1.4,3.9c-0.1,0.6-0.2,1-0.2,1.4c0,0.3,0,0.5,0,0.5L249.3,101.8z"/>
	</g>
	<g id="XMLID_39_">
		<path id="XMLID_41_" class="st1" d="M218.7,119.6c0,0-0.1-1.4-0.6-3.4c-0.3-1-0.6-2.1-1.1-3.3c-0.2-0.6-0.6-1.2-0.8-1.8
			c-0.4-0.6-0.7-1.2-1.1-1.7c-0.4-0.5-0.8-1.1-1.3-1.5c-0.2-0.2-0.4-0.5-0.7-0.7c-0.2-0.2-0.5-0.4-0.7-0.6c-0.2-0.2-0.4-0.4-0.6-0.6
			c-0.2-0.2-0.5-0.4-0.7-0.5c-0.2-0.2-0.4-0.4-0.6-0.5c-0.2-0.2-0.4-0.3-0.6-0.4c-0.4-0.3-0.8-0.6-1.1-0.8c-0.4-0.2-0.7-0.4-0.9-0.6
			c-0.5-0.3-0.8-0.6-0.8-0.6l0.1-0.2c0,0,0.4,0,1,0.1c0.3,0,0.7,0.1,1.1,0.2c0.4,0.1,0.9,0.3,1.4,0.5c0.3,0.1,0.5,0.2,0.8,0.3
			c0.3,0.2,0.5,0.3,0.8,0.5c0.3,0.2,0.6,0.3,0.8,0.5c0.3,0.2,0.5,0.4,0.8,0.7c0.2,0.2,0.5,0.5,0.8,0.8c0.2,0.3,0.4,0.6,0.6,0.9
			c0.4,0.6,0.8,1.2,1.2,1.8c0.4,0.6,0.6,1.3,1,1.9c0.2,0.7,0.5,1.3,0.7,2c0.2,0.6,0.4,1.3,0.5,1.9c0.1,0.6,0.2,1.2,0.3,1.7
			c0.3,2.1,0.1,3.5,0.1,3.5L218.7,119.6z"/>
	</g>
	<g id="XMLID_36_">
		<path id="XMLID_38_" class="st0" d="M215.2,123.2c0,0-0.1-1.1-0.5-2.6c-0.1-0.4-0.2-0.8-0.3-1.2c-0.2-0.4-0.3-0.9-0.4-1.3
			c-0.3-0.9-0.8-1.9-1.3-2.7c-0.3-0.4-0.6-0.8-0.9-1.2c-0.3-0.3-0.6-0.7-1-1c-0.3-0.3-0.6-0.7-0.9-0.9c-0.2-0.1-0.3-0.3-0.4-0.4
			c-0.1-0.1-0.3-0.3-0.4-0.4c-0.3-0.2-0.6-0.4-0.8-0.6c-0.3-0.2-0.5-0.3-0.7-0.4c-0.4-0.2-0.6-0.4-0.6-0.4l0-0.2
			c0,0,0.3-0.1,0.8-0.1c0.3,0,0.6,0,0.9,0c0.3,0.1,0.7,0.2,1.2,0.3c0.4,0.1,0.8,0.4,1.3,0.6c0.2,0.1,0.4,0.3,0.6,0.5
			c0.2,0.2,0.4,0.4,0.6,0.6c0.4,0.4,0.7,0.9,1,1.4c0.2,0.5,0.5,1,0.7,1.5c0.4,1,0.8,2.1,1,3.1c0.2,1,0.3,2,0.4,2.8
			c0.1,1.6,0,2.7,0,2.7L215.2,123.2z"/>
	</g>
	<g id="XMLID_33_">
		<path id="XMLID_35_" class="st0" d="M246.9,121.3c0,0-0.1-0.8-0.2-1.9c-0.1-1.2-0.1-2.7,0.2-4.3c0.2-0.8,0.3-1.6,0.7-2.4
			c0.4-0.7,1.1-1.3,1.8-1.6c0.7-0.3,1.3-0.3,1.7-0.2c0.2,0,0.3,0.1,0.4,0.2c0,0,0,0,0,0l0,0c0,0-0.1,0-0.1,0.1c-0.1,0,0,0.2,0,0.2
			l0,0c0,0,0,0,0,0c0,0,0,0,0,0c0,0,0,0,0,0l0.1-0.2c0,0,0,0,0,0c0,0,0,0,0.1,0c0,0,0,0,0,0l0,0c0,0,0.1,0.2,0,0.2
			c0,0-0.1,0.1-0.1,0.1l0,0l0,0c-0.1,0.1-0.2,0.1-0.4,0.2c-0.3,0.2-0.6,0.4-0.9,0.8c-0.3,0.4-0.6,0.8-0.9,1.3
			c-0.3,0.5-0.7,1.1-1,1.7c-0.5,1.3-0.8,2.8-1,3.9c-0.2,1.1-0.3,1.9-0.3,1.9L246.9,121.3z"/>
	</g>
</g>
<g id="Boat_back">
	<path id="XMLID_32_" class="st2" d="M170.2,79.5c0,0-134.9-4.7-134.3,3.7C35.8,83.2,47.8,106.8,170.2,79.5z"/>
</g>
<g id="Hand">
	<path id="XMLID_29_" class="st3" d="M107.3,71.2c0,0,2.7,0.6,3.8,0c2-0.9,6.6-0.8,5.5,0.3c-0.1,0.1,4.3-0.3,4.1,2.8
		c0,0,0.8,2.4-4.9,3.1c0,0-3.6,0.2-5-0.9c0,0-2.5-1.5-4.2-1.7L107.3,71.2z"/>
</g>
<g id="Hook">
	<g id="XMLID_26_">
		<path id="XMLID_28_" d="M194.6,5.8c0,0-5.6,5.1-13.9,12.6c-4.2,3.8-9.1,8.2-14.3,12.9c-5.3,4.7-10.9,9.7-16.5,14.8
			c-2.8,2.5-5.6,5-8.3,7.5c-2.7,2.5-5.5,4.9-8.1,7.3c-2.7,2.3-5.3,4.5-7.7,6.6c-2.5,2.1-4.8,4-7,5.8c-8.8,7.1-14.9,11.6-14.9,11.6
			l-0.2-0.2c0,0,5.2-5.4,13.5-13.2c2.1-1.9,4.3-4,6.7-6.2c2.4-2.2,4.9-4.4,7.6-6.8c2.7-2.3,5.5-4.7,8.3-7c2.8-2.4,5.7-4.8,8.6-7.2
			c5.8-4.9,11.5-9.7,16.9-14.3c5.4-4.6,10.4-8.8,14.8-12.4c8.7-7.2,14.4-12.1,14.4-12.1L194.6,5.8z"/>
	</g>
	<line id="XMLID_25_" class="st4" x1="226.5" y1="90.2" x2="194.5" y2="5.7"/>
</g>
<g id="Fisherman">
	<path id="XMLID_22_" class="st3" d="M97.3,80.6c0,0,2.7,0.6,3.8,0c2-0.9,6.6-0.8,5.5,0.3c-0.1,0.1,4.3-0.3,4.1,2.8
		c0,0,0.8,2.4-4.9,3.1c0,0-3.6,0.2-5-0.9c0,0-2.5-1.5-4.2-1.7L97.3,80.6z"/>
	<path id="XMLID_21_" class="st5" d="M79.2,56c2.3,1.6,9.3,14.6,9.8,21.5c0.5,6.9-18.6,7.3-18.6,7.3s-7.8-9-9.1-17.2
		c0,0-0.9-12.8,5.2-15.4C69.4,51.1,73.8,52,79.2,56z"/>
	<path id="XMLID_20_" class="st5" d="M78.2,56.7c0,0,9.3,8.4,10.7,10.5c0,0,18.3,2.7,18.6,3.4c0,0,0.5,5-0.4,5.7
		c0,0-18.6,0.4-21.1-0.4L78.2,56.7z"/>
	<path id="XMLID_19_" class="st6" d="M83.7,66.9c0,0-11,4.8-13.4,8.4c-2.4,3.7,0.2,28.6,1.7,32.4l23.7-6.3c0,0-5.9-24.9-8.3-29.8
		C87.4,71.7,85.3,66.2,83.7,66.9z"/>
	<path id="XMLID_18_" class="st6" d="M81.7,70.1c0,0-9.4-17.3-16.5-15.4c-2.1,0.5-3,1.6-3.6,5.6c0,0,1.2-2.7,3.7-3.4
		c3.7-1,12.6,11.6,13.8,15L81.7,70.1z"/>
	<path id="XMLID_17_" class="st6" d="M74.8,53.3c4,2.1,7.4,11.8,7.7,14.5l1.6-0.8c0,0-2.6-10.4-7.4-12.8"/>
	<path id="XMLID_16_" class="st5" d="M66.7,64.5c0,0,9.2,8.2,10.5,10.3c0,0,13.1,2,21.1,4.7c0,0,0.3,5.5-0.6,6.2
		c0,0-6.7,1.2-28.4-2.2L66.7,64.5z"/>
	<path id="XMLID_13_" class="st3" d="M79.8,39.2c0,0,2.9,10.3-0.6,12.6c-1.6,1.1-3.4,0.3-3.4,0.3l0.1,3.4c0,0-2.3-0.3-4.2-1.1
		c-1.9-0.9-3.1-1.7-3.1-1.7s-0.1-4.9-1.2-6.5C66.8,45.5,78,41.3,79.8,39.2z"/>
	<path id="XMLID_12_" class="st7" d="M65.6,42.5c0,0-4.8,6.3,0.1,5.2c2.4-0.5,8.7-3.4,12.2-6.3c5.9-4.8,4.5-8-0.4-5.8"/>
	<path id="XMLID_11_" class="st8" d="M79,37.4c0,0-3.4-5.9-8.6-3c-4.4,2.4-6.6,3.4-4.2,9.5C67.8,48,79.4,38.9,79,37.4z"/>
</g>
<g id="Boat_front">
	<path id="XMLID_10_" class="st9" d="M170.2,79.5c0,0-16.3,14.1-38.8,24.1c-29,13-68.1,19.1-95.6-20.5
		C35.8,83.2,46.8,102.8,170.2,79.5z"/>
</g>
<g id="JS">
	<polygon id="XMLID_7_" class="st10" points="240.3,85.2 213,91.9 222.5,119.2 234.4,119.5 244.8,113.6 	"/>
	<polygon id="XMLID_4_" class="st11" points="238.5,88.2 227.3,91 233.8,117.3 242.3,112.5 	"/>
	<polygon id="XMLID_3_" class="st12" points="238,92.1 229.3,94.3 232.3,106.2 237.4,103.9 238.1,106.7 233,109.2 233.8,112.6 
		240.8,108.7 239.3,99.7 233.9,101.7 232.7,96.8 238.6,95.4 	"/>
	<polygon id="XMLID_2_" class="st12" points="227.1,94.8 224.5,95.5 228,109.8 222.4,109.6 223.2,112.8 231.6,113.1 	"/>
</g>
</svg>
